<svg width="49" height="53" viewBox="0 0 49 53" fill="none" xmlns="http://www.w3.org/2000/svg">
<path d="M42.6402 0C40.9942 0 39.3325 0.733513 38.0862 2.1154L13.1049 29.4038L11.8763 30.7006C10.3997 31.0062 8.99191 31.8096 7.87555 33.1565C6.23743 35.1431 5.91454 37.5729 5.29237 40.1817C4.66823 42.7926 3.87674 45.7005 1.96889 48.914L0 52.3261H3.63063C11.3369 52.3261 16.4205 48.2416 19.0135 45.3665L19.0726 45.301C20.2579 43.9518 20.9194 42.2556 21.1655 40.5244L22.15 39.5006L47.1312 12.2121V12.1444C48.328 10.8129 49 9.00975 49 7.12992C49 5.25009 48.328 3.4469 47.1312 2.1154C45.8849 0.733513 44.2842 0 42.6382 0H42.6402ZM42.6402 4.29847C43.2545 4.29847 43.8392 4.6041 44.363 5.1848C45.4163 6.35275 45.4163 7.90491 44.363 9.07504L26.58 28.5852L23.0124 24.6273L40.8544 5.1848C41.3781 4.60629 42.0239 4.29847 42.6402 4.29847ZM20.1791 27.6989L23.7487 31.6546L20.7954 34.8615L17.2258 30.9036L20.1791 27.6989ZM13.416 34.927C14.4083 34.9619 15.4833 35.3876 16.3083 36.2238C17.8381 37.7737 17.8755 40.4873 16.2453 42.2949C14.5383 44.1876 11.5081 46.6283 7.07815 47.5495C8.02322 45.2551 8.68476 43.1135 9.10807 41.3409C9.76174 38.6033 10.2461 36.7259 10.7698 36.0862C11.455 35.261 12.4237 34.8943 13.416 34.9292V34.927Z" fill="black"/>
</svg>
