<svg width="44" height="48" viewBox="0 0 44 48" fill="none" xmlns="http://www.w3.org/2000/svg">
<path d="M21.6667 0C33.631 0 43.3333 9.39581 43.3333 20.9953C43.3316 24.4749 42.0627 27.8115 39.8055 30.2717C37.5482 32.732 34.4873 34.1147 31.2953 34.1159H27.0357C25.038 34.1159 23.4238 35.8756 23.4238 38.0533C23.4238 39.05 23.7857 39.9688 24.3382 40.6514C24.9167 41.36 25.2785 42.2788 25.2785 43.3015C25.2785 45.4816 23.6167 47.2389 21.6667 47.2389C9.70233 47.2389 0 36.6621 0 23.6194C0 10.5768 9.70233 0 21.6667 0ZM19.0905 38.0533C19.0896 36.9156 19.2946 35.7889 19.6935 34.7376C20.0925 33.6864 20.6777 32.7312 21.4157 31.9268C22.1536 31.1223 23.0298 30.4844 23.9942 30.0494C24.9585 29.6145 25.9921 29.3911 27.0357 29.392H31.2953C33.3376 29.3908 35.296 28.5061 36.7406 26.9323C38.1851 25.3584 38.9977 23.224 39 20.9977C39 12.138 31.3473 4.72389 21.6667 4.72389C17.1937 4.71944 12.8924 6.60012 9.66199 9.97272C6.43156 13.3453 4.52217 17.9487 4.33303 22.8204C4.14388 27.6921 5.68964 32.4549 8.64709 36.113C11.6046 39.7711 15.7447 42.0413 20.202 42.4488C19.4765 41.1197 19.0926 39.6022 19.0905 38.0556V38.0533ZM11.9167 23.6194C11.0547 23.6194 10.2281 23.2462 9.61857 22.5817C9.00908 21.9173 8.66667 21.0162 8.66667 20.0765C8.66667 19.1369 9.00908 18.2357 9.61857 17.5713C10.2281 16.9069 11.0547 16.5336 11.9167 16.5336C12.7786 16.5336 13.6053 16.9069 14.2148 17.5713C14.8243 18.2357 15.1667 19.1369 15.1667 20.0765C15.1667 21.0162 14.8243 21.9173 14.2148 22.5817C13.6053 23.2462 12.7786 23.6194 11.9167 23.6194ZM31.4167 23.6194C30.5547 23.6194 29.7281 23.2462 29.1186 22.5817C28.5091 21.9173 28.1667 21.0162 28.1667 20.0765C28.1667 19.1369 28.5091 18.2357 29.1186 17.5713C29.7281 16.9069 30.5547 16.5336 31.4167 16.5336C32.2786 16.5336 33.1053 16.9069 33.7148 17.5713C34.3243 18.2357 34.6667 19.1369 34.6667 20.0765C34.6667 21.0162 34.3243 21.9173 33.7148 22.5817C33.1053 23.2462 32.2786 23.6194 31.4167 23.6194ZM21.6667 16.5336C20.8047 16.5336 19.9781 16.1603 19.3686 15.4959C18.7591 14.8315 18.4167 13.9303 18.4167 12.9907C18.4167 12.051 18.7591 11.1499 19.3686 10.4855C19.9781 9.82104 20.8047 9.44777 21.6667 9.44777C22.5286 9.44777 23.3553 9.82104 23.9648 10.4855C24.5743 11.1499 24.9167 12.051 24.9167 12.9907C24.9167 13.9303 24.5743 14.8315 23.9648 15.4959C23.3553 16.1603 22.5286 16.5336 21.6667 16.5336Z" fill="black"/>
</svg>
